<svg width="32" height="32" viewBox="0 0 32 32" fill="none" xmlns="http://www.w3.org/2000/svg">
<path d="M0 16C0 7.16344 7.16344 0 16 0C24.8366 0 32 7.16344 32 16C32 24.8366 24.8366 32 16 32C7.16344 32 0 24.8366 0 16Z" fill="black"/>
<path fill-rule="evenodd" clip-rule="evenodd" d="M6.66797 15.9735C6.66797 10.8417 10.8548 6.66669 16.0012 6.66669C21.1475 6.66669 25.3344 10.8417 25.3344 15.9735C25.3344 16.7005 25.2738 17.2891 25.1378 17.8798L25.1358 17.8896C25.1355 17.8914 25.068 18.1637 25.0308 18.2825C24.8001 19.0181 24.3825 19.6309 23.823 20.0544C23.2804 20.4651 22.6076 20.6914 21.9287 20.6914C21.8448 20.6914 21.7603 20.688 21.6776 20.6814C20.7134 20.6042 19.8657 20.0983 19.3459 19.2915C18.4518 20.188 17.2655 20.6812 16.0012 20.6812C13.3981 20.6812 11.2803 18.5694 11.2803 15.9735C11.2803 13.3778 13.3981 11.266 16.0012 11.266C18.6043 11.266 20.7221 13.3778 20.7221 15.9735V17.4911C20.726 18.3765 21.3219 18.7385 21.8309 18.7794C22.3374 18.8184 23.0114 18.5242 23.2462 17.5641C23.362 17.0375 23.4209 16.5022 23.4209 15.9735C23.4209 11.8938 20.0924 8.57477 16.0012 8.57477C11.9099 8.57477 8.5815 11.8938 8.5815 15.9735C8.5815 20.0533 11.9099 23.3724 16.0012 23.3724C17.4253 23.3724 18.8104 22.9668 20.0066 22.1994L20.028 22.1856L21.2854 23.6433L21.2584 23.6618C19.7046 24.7207 17.8866 25.2805 16.0012 25.2805C10.8548 25.2805 6.66797 21.1054 6.66797 15.9735ZM16.0012 18.7731C17.5491 18.7731 18.8086 17.5172 18.8086 15.9735C18.8086 14.4299 17.5491 13.1741 16.0012 13.1741C14.4531 13.1741 13.1938 14.4299 13.1938 15.9735C13.1938 17.5172 14.4531 18.7731 16.0012 18.7731Z" fill="white"/>
</svg>
