<svg width="90" height="90" viewBox="0 0 90 90" fill="none" xmlns="http://www.w3.org/2000/svg">
<path d="M54.1562 71.4383L59.8563 77.1383L71.2563 65.7383" stroke="#00AE00" stroke-opacity="0.1" stroke-width="6.0625" stroke-linecap="square" stroke-linejoin="round"/>
<path d="M45.6095 40.7617C45.2345 40.7242 44.7845 40.7242 44.372 40.7617C35.447 40.4617 28.3595 33.1492 28.3595 24.1492C28.322 14.9617 35.7845 7.49921 44.972 7.49921C54.1595 7.49921 61.622 14.9617 61.622 24.1492C61.622 33.1492 54.497 40.4617 45.6095 40.7617Z" stroke="#EAEAEA" stroke-width="6.0625" stroke-linecap="round" stroke-linejoin="round"/>
<path d="M44.9687 81.7881C38.1437 81.7881 31.3562 80.0631 26.1812 76.6131C17.1063 70.5381 17.1063 60.6381 26.1812 54.6006C36.4937 47.7006 53.4062 47.7006 63.7187 54.6006" stroke="#EAEAEA" stroke-width="6.0625" stroke-linecap="round" stroke-linejoin="round"/>
</svg>
