<svg width="32" height="32" viewBox="0 0 32 32" fill="none" xmlns="http://www.w3.org/2000/svg">
<path d="M0 16C0 7.16344 7.16344 0 16 0C24.8366 0 32 7.16344 32 16C32 24.8366 24.8366 32 16 32C7.16344 32 0 24.8366 0 16Z" fill="white"/>
<path d="M16.8352 21.2507C16.8352 21.2507 17.1432 21.2171 17.3009 21.0508C17.4453 20.8984 17.4403 20.6108 17.4403 20.6108C17.4403 20.6108 17.4211 19.2678 18.0564 19.0696C18.6824 18.8746 19.4863 20.3683 20.3394 20.9426C20.9838 21.3769 21.4729 21.2819 21.4729 21.2819L23.7526 21.2507C23.7526 21.2507 24.9446 21.1786 24.3795 20.2585C24.3327 20.1831 24.0497 19.5776 22.6849 18.3338C21.2551 17.0318 21.447 17.2424 23.1683 14.9899C24.2167 13.6183 24.6357 12.7809 24.5047 12.4228C24.3803 12.0803 23.609 12.1713 23.609 12.1713L21.043 12.1869C21.043 12.1869 20.8527 12.1615 20.7116 12.2442C20.5739 12.3253 20.4846 12.5146 20.4846 12.5146C20.4846 12.5146 20.0789 13.5757 19.5372 14.4786C18.3944 16.3829 17.9378 16.4836 17.7509 16.3656C17.316 16.0895 17.4245 15.2579 17.4245 14.6671C17.4245 12.8211 17.7099 12.0517 16.8694 11.8526C16.5906 11.7862 16.3852 11.7428 15.6715 11.7354C14.7558 11.7264 13.9812 11.7387 13.5421 11.9492C13.25 12.0894 13.0246 12.4024 13.1623 12.4204C13.3318 12.4425 13.7158 12.522 13.9194 12.794C14.1824 13.1455 14.1732 13.9338 14.1732 13.9338C14.1732 13.9338 14.3243 16.1067 13.8201 16.3763C13.4745 16.5615 13.0004 16.1837 11.9812 14.4557C11.4595 13.5708 11.0655 12.5924 11.0655 12.5924C11.0655 12.5924 10.9895 12.4097 10.8535 12.3114C10.689 12.1926 10.4595 12.1557 10.4595 12.1557L8.02122 12.1713C8.02122 12.1713 7.65478 12.1811 7.52039 12.3376C7.40102 12.4761 7.5112 12.7637 7.5112 12.7637C7.5112 12.7637 9.42023 17.1481 11.5822 19.358C13.5647 21.3835 15.8151 21.2507 15.8151 21.2507H16.8352Z" fill="black"/>
</svg>
