<svg width="24" height="24" viewBox="0 0 24 24" fill="none" xmlns="http://www.w3.org/2000/svg">
<path d="M0 12C0 5.37258 5.37258 0 12 0C18.6274 0 24 5.37258 24 12C24 18.6274 18.6274 24 12 24C5.37258 24 0 18.6274 0 12Z" fill="black"/>
<path d="M12.6293 15.9381C12.6293 15.9381 12.8603 15.9129 12.9786 15.7881C13.0869 15.6738 13.0832 15.4581 13.0832 15.4581C13.0832 15.4581 13.0688 14.4509 13.5452 14.3022C14.0147 14.156 14.6176 15.2762 15.2574 15.707C15.7408 16.0327 16.1076 15.9614 16.1076 15.9614L17.8174 15.9381C17.8174 15.9381 18.7114 15.884 18.2875 15.1939C18.2525 15.1374 18.0402 14.6832 17.0166 13.7504C15.9442 12.7739 16.0882 12.9318 17.3791 11.2425C18.1654 10.2138 18.4797 9.58572 18.3814 9.31717C18.2881 9.0603 17.7097 9.12851 17.7097 9.12851L15.7852 9.14019C15.7852 9.14019 15.6425 9.12114 15.5367 9.18321C15.4334 9.24405 15.3664 9.386 15.3664 9.386C15.3664 9.386 15.0621 10.1818 14.6558 10.859C13.7988 12.2872 13.4563 12.3628 13.3161 12.2743C12.9899 12.0672 13.0713 11.4434 13.0713 11.0004C13.0713 9.61583 13.2854 9.03879 12.655 8.88946C12.4459 8.83969 12.2919 8.80712 11.7566 8.80159C11.0698 8.79483 10.4888 8.80404 10.1595 8.96198C9.94042 9.06706 9.77138 9.30181 9.87468 9.31533C10.0018 9.33192 10.2898 9.39153 10.4425 9.59556C10.6397 9.85919 10.6328 10.4504 10.6328 10.4504C10.6328 10.4504 10.7461 12.0801 10.368 12.2823C10.1088 12.4212 9.75323 12.1379 8.98882 10.8418C8.59754 10.1781 8.30205 9.44438 8.30205 9.44438C8.30205 9.44438 8.24508 9.30734 8.14303 9.2336C8.0197 9.14449 7.84754 9.11684 7.84754 9.11684L6.01885 9.12851C6.01885 9.12851 5.74401 9.13589 5.64322 9.25326C5.55369 9.35712 5.63633 9.57282 5.63633 9.57282C5.63633 9.57282 7.06811 12.8612 8.68957 14.5185C10.1764 16.0376 11.8643 15.9381 11.8643 15.9381H12.6293Z" fill="white"/>
</svg>
