<svg width="24" height="24" viewBox="0 0 24 24" fill="none" xmlns="http://www.w3.org/2000/svg">
<path d="M12 24C18.6274 24 24 18.6274 24 12C24 5.37258 18.6274 0 12 0C5.37258 0 0 5.37258 0 12C0 18.6274 5.37258 24 12 24Z" fill="black"/>
<path fill-rule="evenodd" clip-rule="evenodd" d="M12.3987 18.6762H12.3957C11.2015 18.6757 10.028 18.3761 8.9858 17.8076L5.20312 18.7999L6.21543 15.1023C5.59099 14.0202 5.26241 12.7926 5.26295 11.535C5.26452 7.60075 8.46553 4.3999 12.3986 4.3999C14.3074 4.40073 16.099 5.14384 17.4462 6.49261C18.7934 7.84131 19.535 9.63407 19.5342 11.5407C19.5326 15.474 16.3329 18.6746 12.3987 18.6762ZM9.16106 16.5158L9.37763 16.6444C10.2882 17.1847 11.332 17.4707 12.3963 17.4711H12.3987C15.6675 17.4711 18.3281 14.8105 18.3294 11.5402C18.33 9.95551 17.7137 8.46544 16.594 7.3444C15.4742 6.22335 13.9851 5.60567 12.401 5.60512C9.12959 5.60512 6.46901 8.26546 6.46771 11.5354C6.46725 12.6561 6.78081 13.7475 7.37449 14.6917L7.51551 14.9161L6.91637 17.1047L9.16106 16.5158ZM15.7493 13.0769C15.8737 13.137 15.9577 13.1776 15.9935 13.2375C16.0381 13.3118 16.0381 13.6688 15.8896 14.0853C15.7409 14.5018 15.0287 14.8819 14.6861 14.9331C14.3789 14.979 13.9902 14.9981 13.5631 14.8624C13.3041 14.7803 12.9721 14.6706 12.5467 14.4868C10.8752 13.7651 9.74565 12.1451 9.53215 11.8389C9.5172 11.8175 9.50674 11.8025 9.5009 11.7947L9.49946 11.7928C9.40511 11.6669 8.77288 10.8233 8.77288 9.95029C8.77288 9.12902 9.1763 8.69855 9.362 8.50041C9.37472 8.48683 9.38642 8.47435 9.3969 8.4629C9.56032 8.2844 9.75349 8.23978 9.87235 8.23978C9.99119 8.23978 10.1102 8.24088 10.2141 8.2461C10.2269 8.24674 10.2402 8.24666 10.254 8.24658C10.3579 8.24597 10.4874 8.24521 10.6152 8.55215C10.6644 8.67028 10.7363 8.8454 10.8122 9.0301C10.9656 9.40361 11.1351 9.81629 11.1649 9.87601C11.2095 9.96526 11.2392 10.0693 11.1798 10.1884C11.1709 10.2062 11.1626 10.2231 11.1547 10.2392C11.1101 10.3303 11.0773 10.3973 11.0015 10.4858C10.9717 10.5206 10.9409 10.5581 10.9101 10.5956C10.8488 10.6703 10.7875 10.745 10.7341 10.7982C10.6448 10.8871 10.5519 10.9835 10.6559 11.162C10.7599 11.3405 11.1177 11.9244 11.6477 12.3971C12.2175 12.9054 12.7127 13.1201 12.9637 13.229C13.0127 13.2503 13.0524 13.2675 13.0816 13.2821C13.2598 13.3714 13.3638 13.3564 13.4678 13.2375C13.5718 13.1185 13.9135 12.7168 14.0323 12.5384C14.1512 12.3599 14.2701 12.3897 14.4335 12.4491C14.597 12.5087 15.4735 12.94 15.6518 13.0292C15.6866 13.0466 15.7192 13.0624 15.7493 13.0769Z" fill="white"/>
</svg>
