<svg width="32" height="32" viewBox="0 0 32 32" fill="none" xmlns="http://www.w3.org/2000/svg">
<path d="M16 32C24.8366 32 32 24.8366 32 16C32 7.16344 24.8366 0 16 0C7.16344 0 0 7.16344 0 16C0 24.8366 7.16344 32 16 32Z" fill="white"/>
<path fill-rule="evenodd" clip-rule="evenodd" d="M16.5276 24.9017H16.5237C14.9314 24.9011 13.3668 24.5016 11.9772 23.7436L6.93359 25.0667L8.28334 20.1366C7.45075 18.6937 7.01265 17.057 7.01336 15.3802C7.01545 10.1345 11.2835 5.86667 16.5276 5.86667C19.0727 5.86777 21.4615 6.85858 23.2577 8.65694C25.054 10.4552 26.0427 12.8456 26.0417 15.3877C26.0396 20.6322 21.7733 24.8995 16.5276 24.9017ZM12.2108 22.0213L12.4996 22.1926C13.7137 22.9131 15.1055 23.2943 16.5244 23.2949H16.5276C20.8862 23.2949 24.4335 19.7474 24.4353 15.3871C24.4361 13.2741 23.6144 11.2874 22.1214 9.79266C20.6284 8.29793 18.6429 7.47436 16.5308 7.47363C12.1689 7.47363 8.62144 11.0207 8.61971 15.3807C8.6191 16.8749 9.03717 18.3301 9.82875 19.5891L10.0168 19.8883L9.21792 22.8064L12.2108 22.0213ZM20.9952 17.436C21.161 17.5162 21.273 17.5703 21.3208 17.6501C21.3802 17.7492 21.3802 18.2252 21.1822 18.7806C20.984 19.3359 20.0343 19.8427 19.5775 19.9109C19.168 19.9721 18.6497 19.9977 18.0802 19.8167C17.7349 19.7071 17.2922 19.5609 16.725 19.3159C14.4964 18.3536 12.9903 16.1936 12.7056 15.7854C12.6857 15.7568 12.6717 15.7368 12.664 15.7264L12.662 15.7238C12.5362 15.5559 11.6933 14.4312 11.6933 13.2672C11.6933 12.1722 12.2312 11.5982 12.4788 11.334C12.4957 11.3159 12.5113 11.2993 12.5253 11.284C12.7432 11.046 13.0008 10.9865 13.1592 10.9865C13.3177 10.9865 13.4763 10.988 13.6148 10.9949C13.6319 10.9958 13.6497 10.9957 13.6681 10.9956C13.8066 10.9948 13.9793 10.9937 14.1497 11.403C14.2153 11.5605 14.3112 11.794 14.4123 12.0403C14.6169 12.5383 14.8429 13.0885 14.8827 13.1681C14.9421 13.2871 14.9817 13.4259 14.9025 13.5846C14.8906 13.6084 14.8796 13.6309 14.8691 13.6524C14.8096 13.7739 14.7658 13.8632 14.6648 13.9812C14.625 14.0276 14.584 14.0776 14.5429 14.1276C14.4612 14.2272 14.3794 14.3267 14.3082 14.3977C14.1892 14.5162 14.0653 14.6448 14.2039 14.8828C14.3426 15.1208 14.8197 15.8993 15.5264 16.5297C16.2861 17.2073 16.9464 17.4937 17.281 17.6388C17.3464 17.6672 17.3993 17.6901 17.4382 17.7096C17.6758 17.8286 17.8145 17.8087 17.9532 17.6501C18.0919 17.4914 18.5474 16.9559 18.7059 16.718C18.8643 16.48 19.0229 16.5197 19.2408 16.599C19.4587 16.6784 20.6275 17.2534 20.8652 17.3724C20.9116 17.3956 20.955 17.4166 20.9952 17.436Z" fill="black"/>
</svg>
