<svg width="24" height="24" viewBox="0 0 24 24" fill="none" xmlns="http://www.w3.org/2000/svg">
<path d="M0 12C0 5.37258 5.37258 0 12 0C18.6274 0 24 5.37258 24 12C24 18.6274 18.6274 24 12 24C5.37258 24 0 18.6274 0 12Z" fill="black"/>
<path d="M18.1341 9.03671C17.9869 8.4712 17.5531 8.02589 17.0024 7.87476C16.0043 7.6001 12.0016 7.6001 12.0016 7.6001C12.0016 7.6001 7.99887 7.6001 7.00069 7.87476C6.44993 8.02589 6.01618 8.4712 5.86898 9.03671C5.60156 10.0616 5.60156 12.2001 5.60156 12.2001C5.60156 12.2001 5.60156 14.3385 5.86898 15.3635C6.01618 15.929 6.44993 16.3743 7.00069 16.5255C7.99887 16.8001 12.0016 16.8001 12.0016 16.8001C12.0016 16.8001 16.0043 16.8001 17.0024 16.5255C17.5531 16.3743 17.9869 15.929 18.1341 15.3635C18.4016 14.3385 18.4016 12.2001 18.4016 12.2001C18.4016 12.2001 18.4016 10.0616 18.1341 9.03671Z" fill="white"/>
<path d="M10.7969 14.3999V10.3999L13.9969 12.4L10.7969 14.3999Z" fill="black"/>
</svg>
