<svg width="32" height="32" viewBox="0 0 32 32" fill="none" xmlns="http://www.w3.org/2000/svg">
<path d="M0 16C0 7.16344 7.16344 0 16 0C24.8366 0 32 7.16344 32 16C32 24.8366 24.8366 32 16 32C7.16344 32 0 24.8366 0 16Z" fill="white"/>
<path d="M24.1749 12.0488C23.9786 11.2948 23.4003 10.7011 22.6659 10.4996C21.3351 10.1333 15.9982 10.1333 15.9982 10.1333C15.9982 10.1333 10.6613 10.1333 9.33035 10.4996C8.596 10.7011 8.01767 11.2948 7.8214 12.0488C7.46484 13.4154 7.46484 16.2667 7.46484 16.2667C7.46484 16.2667 7.46484 19.1179 7.8214 20.4845C8.01767 21.2385 8.596 21.8323 9.33035 22.0339C10.6613 22.4 15.9982 22.4 15.9982 22.4C15.9982 22.4 21.3351 22.4 22.6659 22.0339C23.4003 21.8323 23.9786 21.2385 24.1749 20.4845C24.5315 19.1179 24.5315 16.2667 24.5315 16.2667C24.5315 16.2667 24.5315 13.4154 24.1749 12.0488Z" fill="black"/>
<path d="M14.3984 19.2V13.8667L18.6651 16.5334L14.3984 19.2Z" fill="white"/>
</svg>
